<?xml version="1.0" encoding="utf-8"?>
<!-- Generator: Adobe Illustrator 16.0.0, SVG Export Plug-In . SVG Version: 6.00 Build 0)  -->
<!DOCTYPE svg PUBLIC "-//W3C//DTD SVG 1.1//EN" "http://www.w3.org/Graphics/SVG/1.1/DTD/svg11.dtd">
<svg version="1.1" id="Layer_1" xmlns="http://www.w3.org/2000/svg" xmlns:xlink="http://www.w3.org/1999/xlink" x="0px" y="0px"
	 width="598.592px" height="140.999px" viewBox="0 0 598.592 140.999" enable-background="new 0 0 598.592 140.999"
	 xml:space="preserve">
<g>
	<g>
		<path fill="#199587" d="M49.107,86.846C14.979,78.986,7.145,52.473,7.992,47.913c-5.15,23.092,9.85,46.775,41.115,54.014V86.846z"
			/>
		<path fill="#9E489B" d="M61.594,103.895c-44.75-3.52-54.545-35.745-53.602-40.808c-5.801,25.977,13.916,52.706,53.602,55.929
			V103.895z"/>
		<path fill="#B7CC45" d="M7.992,77.859c-0.996,5.362,10.018,41.129,61.742,41.129v15.127
			C24.627,134.115,1.805,105.559,7.992,77.859z"/>
		<path fill="#199587" d="M49.107,20.331V5.248C17.842,12.494,2.842,36.172,7.992,59.264C7.145,54.703,14.979,28.19,49.107,20.331z"
			/>
		<path fill="#9E489B" d="M61.594,33.624V18.508C21.908,21.724,2.191,48.454,7.992,74.437C7.049,69.367,16.844,37.143,61.594,33.624
			z"/>
		<path fill="#B7CC45" d="M7.992,89.209C6.996,83.846,18.01,48.081,69.734,48.081V32.956C24.627,32.956,1.805,61.516,7.992,89.209z"
			/>
		<path fill="#177F70" d="M12.078,76.139c1.259,2.252,2.849,4.627,4.816,7.009c2.109-2.426,4.749-4.939,8.053-7.384
			c-2.265-1.756-4.26-3.592-6.006-5.455c-0.743-0.689-1.35-1.26-1.705-1.595C15.108,71.233,13.41,73.756,12.078,76.139z"/>
		<path fill="#873E87" d="M8.854,83.428c0.627,2.031,1.597,4.421,2.987,6.989c1.195-2.192,2.837-4.67,5.063-7.249
			c-1.879-2.259-3.496-4.642-4.85-7.121C10.55,78.763,9.513,81.293,8.854,83.428z"/>
		<path fill="#A4B23F" d="M8.742,83.501c-1.836,4.274-1.117,10.583-0.775,12.558c0.208,0.898,0.45,1.79,0.719,2.675
			c0.145-0.792,0.813-3.873,3.022-8.017C10.489,88.383,9.501,85.971,8.742,83.501z"/>
	</g>
	<g>
		<path fill="#199587" d="M90.62,52.517c34.129,7.859,41.963,34.373,41.115,38.933c5.15-23.092-9.85-46.775-41.115-54.014V52.517z"
			/>
		<path fill="#9E489B" d="M78.134,35.468c44.75,3.52,54.545,35.745,53.602,40.808c5.801-25.977-13.916-52.706-53.602-55.929V35.468z
			"/>
		<path fill="#B7CC45" d="M131.735,61.503c0.996-5.362-10.018-41.129-61.742-41.129V5.247
			C115.101,5.247,137.923,33.804,131.735,61.503z"/>
		<path fill="#199587" d="M90.62,119.031v15.084c31.266-7.247,46.266-30.925,41.115-54.017
			C132.583,84.659,124.749,111.172,90.62,119.031z"/>
		<path fill="#9E489B" d="M78.134,105.738v15.116c39.686-3.216,59.402-29.946,53.602-55.929
			C132.679,69.995,122.884,102.22,78.134,105.738z"/>
		<path fill="#B7CC45" d="M131.735,50.153c0.996,5.363-10.018,41.128-61.742,41.128v15.125
			C115.101,106.406,137.923,77.847,131.735,50.153z"/>
		<path fill="#177F70" d="M127.649,63.224c-1.259-2.252-2.849-4.627-4.816-7.009c-2.109,2.426-4.749,4.939-8.053,7.384
			c2.265,1.756,4.26,3.592,6.006,5.455c0.743,0.689,1.35,1.26,1.705,1.595C124.619,68.129,126.317,65.606,127.649,63.224z"/>
		<path fill="#873E87" d="M130.873,55.935c-0.627-2.031-1.597-4.421-2.987-6.989c-1.195,2.192-2.837,4.67-5.063,7.249
			c1.879,2.259,3.496,4.642,4.85,7.121C129.178,60.599,130.215,58.069,130.873,55.935z"/>
		<path fill="#A4B23F" d="M130.985,55.861c1.836-4.274,1.117-10.583,0.775-12.558c-0.208-0.898-0.45-1.79-0.719-2.675
			c-0.145,0.792-0.813,3.873-3.022,8.017C129.238,50.979,130.227,53.392,130.985,55.861z"/>
	</g>
</g>
<g>
	<g>
		<path fill="#FFFFFF" d="M206.051,106h-20.17V30.932c3.107-0.878,6.061-1.565,8.896-2.07c2.82-0.521,6.209-0.981,10.145-1.421
			c3.941-0.429,8.277-0.63,13.064-0.63c5.152,0,9.748,0.597,13.832,1.788c4.096,1.178,7.582,2.904,10.473,5.137
			c2.898,2.252,5.1,4.969,6.621,8.147c1.51,3.171,2.275,6.712,2.275,10.629c0,5.069-0.834,9.258-2.5,12.526
			c-1.658,3.293-3.873,5.906-6.627,7.873c-2.734,1.95-5.881,3.303-9.434,4.069c-3.523,0.753-7.234,1.134-11.059,1.134
			c-0.822,0-2.055,0.033-3.799,0.05c-1.738,0.036-3.467,0.052-5.189,0.052c-1.746,0-3.275,0-4.561,0
			c-1.313,0-1.969-0.024-1.969-0.102V106z M231.768,52.929c0-3.954-1.34-6.984-4.01-9.036c-2.68-2.075-6.395-3.109-11.193-3.109
			c-1.434,0-2.809,0.095-4.115,0.286c-1.291,0.174-2.422,0.324-3.359,0.488c-1.148,0.217-2.166,0.433-3.039,0.646v21.154h10.217
			c2.424,0,4.625-0.158,6.541-0.424c1.93-0.301,3.553-0.825,4.895-1.579c1.33-0.769,2.342-1.825,3.035-3.222
			C231.404,56.784,231.768,55.054,231.768,52.929z"/>
		<path fill="#FFFFFF" d="M259.852,53.589c2.182-1.077,4.701-2.004,7.604-2.801c2.549-0.738,5.637-1.384,9.338-1.971
			c3.666-0.568,7.979-0.861,12.896-0.861c1.096,0,2.252,0.037,3.533,0.173c1.262,0.12,2.436,0.2,3.523,0.305
			c1.074,0.124,1.963,0.238,2.658,0.384c0.689,0.157,0.998,0.213,0.932,0.213v12.805c-0.512-0.192-1.213-0.418-2.109-0.652
			c-0.926-0.207-1.912-0.389-2.992-0.531c-1.096-0.163-2.215-0.266-3.418-0.389c-1.197-0.105-2.268-0.164-3.199-0.164
			c-1.605,0-3.029,0.164-4.289,0.488c-1.266,0.317-2.35,0.66-3.244,1.056c-0.922,0.353-1.594,0.681-2.063,1.02
			c-0.471,0.321-0.719,0.528-0.719,0.581V106h-18.451V53.589z"/>
		<path fill="#FFFFFF" d="M308.783,52.188c1.586-0.501,3.592-1.004,5.967-1.483c2.385-0.444,4.83-0.883,7.338-1.291
			c2.486-0.401,4.879-0.725,7.146-0.979c2.277-0.256,4.135-0.379,5.584-0.379c3.096,0,6.154,0.243,9.127,0.716
			c2.943,0.477,5.592,1.396,7.902,2.771c2.326,1.365,4.186,3.281,5.607,5.736c1.404,2.462,2.111,5.693,2.111,9.668v36.872
			c-2.678,0.81-5.225,1.439-7.654,1.899c-2.422,0.467-5.354,0.884-8.797,1.242c-3.43,0.374-7.252,0.56-11.447,0.56
			c-3.609,0-7.004-0.186-10.182-0.56c-3.191-0.358-6.01-1.134-8.469-2.32c-2.467-1.198-4.477-2.885-6.023-5.109
			c-1.553-2.196-2.443-5.174-2.645-8.949c-0.234-3.395,0.309-6.225,1.615-8.51c1.297-2.283,3.055-4.146,5.268-5.635
			c2.205-1.486,4.738-2.645,7.594-3.525c2.848-0.867,5.73-1.565,8.613-2.06c1.244-0.231,2.563-0.433,4.02-0.646
			c1.453-0.238,2.824-0.404,4.115-0.553c1.303-0.14,2.443-0.254,3.414-0.331c0.984-0.074,1.627-0.096,1.914-0.096v-1.622
			c0-1.751-0.186-3.107-0.547-4.123c-0.352-1.013-0.914-1.79-1.684-2.299c-0.758-0.494-1.695-0.818-2.813-0.964
			c-1.129-0.147-2.441-0.222-3.971-0.222c-1.736,0-3.664,0.222-5.85,0.654c-2.178,0.43-4.348,0.939-6.504,1.572
			c-2.17,0.618-4.191,1.263-6.086,1.975c-1.877,0.667-3.434,1.269-4.666,1.772V52.188z M322.787,89.285
			c0,2.322,0.75,3.961,2.285,4.941c1.51,0.971,3.326,1.465,5.424,1.465c2.447,0,4.561-0.136,6.336-0.395
			c1.766-0.245,3.172-0.544,4.189-0.918V81.158c-0.607,0-1.383,0.049-2.35,0.095c-0.963,0.078-1.994,0.171-3.031,0.214
			c-1.055,0.08-2.066,0.186-3.041,0.352c-0.973,0.124-1.721,0.25-2.23,0.303c-2.094,0.516-3.865,1.276-5.367,2.281
			C323.523,85.399,322.787,87.051,322.787,89.285z"/>
		<path fill="#FFFFFF" d="M408.697,96.46h-0.209c-1.686,2.582-3.811,4.615-6.465,6.052c-2.623,1.455-5.471,2.188-8.516,2.188
			c-4.273,0-7.959-0.732-11.057-2.188c-3.129-1.437-5.668-3.411-7.705-5.906c-2.035-2.493-3.512-5.438-4.508-8.838
			c-0.971-3.401-1.445-7.09-1.445-11.06c0-6.225,1.396-11.686,4.203-16.378c2.117-3.633,5.098-6.533,8.963-8.745
			c3.871-2.215,8.777-3.336,14.699-3.423c4.781,0,9.014,0.309,12.738,0.868c3.732,0.584,6.859,1.272,9.393,2.076
			c2.965,0.861,5.559,1.899,7.707,3.027v52.724c0.064,3.973-0.588,7.188-1.957,9.657c-1.391,2.462-3.189,4.387-5.467,5.77
			c-2.281,1.347-4.906,2.289-7.877,2.743c-2.973,0.464-5.99,0.711-9.109,0.711c-1.449,0-3.365-0.067-5.736-0.223
			c-2.396-0.146-4.922-0.377-7.557-0.698c-2.641-0.321-5.211-0.747-7.697-1.235c-2.504-0.528-4.498-1.174-6.027-1.971l-0.227-13.774
			c1.234,0.5,2.855,1.118,4.846,1.786c1.994,0.694,4.117,1.35,6.41,1.952c2.252,0.608,4.559,1.155,6.879,1.578
			c2.311,0.432,4.33,0.649,6.082,0.649c1.51,0,2.875-0.065,4.059-0.218c1.199-0.136,2.205-0.466,3.035-0.976
			c0.828-0.494,1.463-1.264,1.904-2.282c0.432-1.004,0.641-2.375,0.641-4.115V96.46z M386.461,77.361
			c0,1.808,0.176,3.493,0.537,5.088c0.363,1.6,0.969,3.008,1.838,4.243c0.877,1.222,2.033,2.194,3.416,2.923
			c1.416,0.724,3.15,1.097,5.16,1.097c1.021,0,2.133-0.216,3.373-0.624c1.223-0.383,2.455-0.884,3.676-1.452
			c1.313-0.573,2.729-1.26,4.236-2.079V64.98c-1.002-0.482-2.127-0.917-3.369-1.301c-1.012-0.353-2.18-0.674-3.518-0.967
			c-1.34-0.287-2.693-0.438-4.078-0.438c-2.086,0-3.867,0.417-5.301,1.25c-1.455,0.823-2.619,1.943-3.469,3.359
			c-0.869,1.414-1.51,3.021-1.9,4.815C386.674,73.508,386.461,75.408,386.461,77.361z"/>
		<path fill="#FFFFFF" d="M439.082,54.036c3.025-1.227,5.883-2.233,8.551-2.987c2.691-0.77,5.883-1.458,9.564-2.061
			c3.691-0.615,7.695-0.933,12.031-0.933c3.191,0,5.949,0.317,8.305,0.933c2.33,0.603,4.371,1.315,6.023,2.119
			c2.668-0.738,5.723-1.421,9.152-2.076c3.451-0.646,7.219-0.976,11.352-0.976c5.713,0,10.133,0.781,13.277,2.292
			c3.154,1.504,5.451,3.386,6.898,5.597c1.447,2.175,2.309,4.545,2.598,7.099c0.301,2.521,0.424,4.788,0.424,6.817V106h-18.436
			V75.619c0-2.234,0.027-4.301,0.064-6.175c0.027-1.882-0.096-3.516-0.379-4.882c-0.293-1.371-0.861-2.452-1.725-3.265
			c-0.877-0.809-2.18-1.198-3.922-1.198c-1.369,0-2.668,0.136-3.896,0.39c-1.242,0.25-2.361,0.564-3.369,0.929
			c-1.152,0.353-2.207,0.791-3.154,1.295V106h-18.439V75.619c0-2.178,0.021-4.207,0.064-6.123c0.021-1.918-0.117-3.567-0.457-4.934
			c-0.301-1.371-0.893-2.452-1.711-3.265c-0.838-0.809-2.139-1.198-3.852-1.198c-1.383,0-2.686,0.136-3.912,0.39
			c-1.219,0.25-2.35,0.564-3.354,0.929c-1.154,0.353-2.219,0.791-3.17,1.295V106H439.17L439.082,54.036z"/>
		<path fill="#FFFFFF" d="M541.566,52.188c1.629-0.501,3.602-0.989,5.988-1.483c2.389-0.444,4.813-0.883,7.328-1.291
			c2.488-0.401,4.891-0.725,7.156-0.979c2.275-0.256,4.139-0.379,5.588-0.379c3.113,0,6.135,0.243,9.107,0.716
			c2.994,0.477,5.615,1.396,7.924,2.771c2.318,1.365,4.184,3.281,5.592,5.736c1.412,2.462,2.119,5.693,2.119,9.668v36.872
			c-2.682,0.81-5.244,1.439-7.66,1.899c-2.408,0.467-5.354,0.884-8.787,1.258c-3.441,0.358-7.252,0.544-11.432,0.544
			c-3.629,0-7.021-0.186-10.209-0.544c-3.178-0.374-6.014-1.149-8.439-2.336c-2.482-1.198-4.484-2.885-6.033-5.109
			c-1.576-2.196-2.443-5.174-2.678-8.949c-0.215-3.395,0.328-6.225,1.652-8.51c1.291-2.283,3.039-4.146,5.244-5.635
			c2.209-1.486,4.73-2.645,7.604-3.525c2.846-0.867,5.73-1.55,8.617-2.06c1.23-0.231,2.57-0.433,4.01-0.646
			c1.438-0.223,2.83-0.39,4.15-0.553c1.277-0.14,2.424-0.254,3.389-0.331c0.977-0.074,1.609-0.096,1.895-0.096v-1.622
			c0-1.751-0.166-3.107-0.543-4.123c-0.348-1.013-0.906-1.79-1.674-2.299c-0.756-0.494-1.695-0.818-2.822-0.964
			c-1.133-0.147-2.436-0.222-3.941-0.222c-1.75,0-3.711,0.222-5.883,0.654c-2.162,0.43-4.324,0.939-6.498,1.572
			c-2.176,0.618-4.195,1.263-6.068,1.975c-1.896,0.667-3.441,1.269-4.695,1.772V52.188z M555.566,89.285
			c0,2.322,0.791,3.961,2.293,4.941c1.512,0.971,3.328,1.465,5.416,1.465c2.475,0,4.578-0.129,6.359-0.395
			c1.766-0.242,3.166-0.544,4.18-0.918V81.158c-0.588,0-1.357,0.049-2.34,0.095c-0.975,0.078-1.982,0.171-3.027,0.214
			c-1.059,0.08-2.061,0.186-3.057,0.352c-0.959,0.124-1.697,0.25-2.207,0.303c-2.113,0.516-3.91,1.276-5.377,2.281
			C556.316,85.399,555.566,87.051,555.566,89.285z"/>
	</g>
</g>
</svg>
